<svg width="1140.56" height="787.27" xmlns="http://www.w3.org/2000/svg">

 <title>maker launch</title>
 <g>
  <title>background</title>
  <rect fill="none" id="canvas_background" height="402" width="582" y="-1" x="-1"/>
 </g>
 <g>
  <title>Layer 1</title>
  <path id="svg_3" fill="#6c63ff" d="m148.740001,586.769999s13.2,-3 21.85,5.87c0,0 -5.56,5 -18.64,-0.54l-3.21,-5.33z"/>
  <path id="svg_4" fill="#6c63ff" d="m147.280001,586.639999s-7.82,11.08 -2.86,22.45c0,0 6.76,-3.25 6.57,-17.45l-3.71,-5z"/>
  <path id="svg_5" fill="#6c63ff" d="m138.480001,569.939999s4.69,-10.15 27,2.12c0,0 -2.4,6.78 -11.88,6.88s-12.32,-4.01 -15.12,-9z"/>
  <path id="svg_6" fill="#6c63ff" d="m137.060001,569.319999s-11.17,-0.52 -10.54,24.92c0,0 7.13,1 11.58,-7.38s2.09,-12.71 -1.04,-17.54z"/>
  <path id="svg_7" fill="#6c63ff" d="m129.280001,549.519999s5,-17.68 28.47,-6.88c0,0 -4.1,16.19 -25.8,12.64l-2.67,-5.76z"/>
  <path id="svg_8" fill="#6c63ff" d="m120.570001,524.179999s10.58,-18.24 32.49,-3.44c0,0 -6.19,16.87 -30.29,9.55l-2.2,-6.11z"/>
  <path id="svg_9" fill="#6c63ff" d="m116.430001,499.779999s12.63,-16.95 34.36,-2.31c0,0 -12.06,14.94 -34.09,6.4l-0.27,-4.09z"/>
  <path id="svg_10" fill="#6c63ff" d="m112.690001,476.059999s12.76,-17.66 33.59,-3.15c0,0 -14.68,15.83 -33.33,7.07l-0.26,-3.92z"/>
  <path id="svg_11" fill="#6c63ff" d="m112.510001,454.799999s13.15,-22.53 32.65,-9.17c0,0 -14.42,19.57 -32.37,13.26l-0.28,-4.09z"/>
  <path id="svg_12" fill="#6c63ff" d="m114.280001,429.819999s14,-22.4 33.09,-7.18c0,0 -17.1,19.75 -32.87,11.15l-0.22,-3.97z"/>
  <path id="svg_13" fill="#6c63ff" d="m117.910001,407.359999s17,-21.31 33.55,-14.37c0,0 -17.68,22.6 -34,19.76l0.45,-5.39z"/>
  <path id="svg_14" fill="#6c63ff" d="m122.910001,385.959999s19.54,-26 32.37,-18.62c0,0 -14.31,20.09 -33.58,23.35l1.21,-4.73z"/>
  <path id="svg_15" fill="#6c63ff" d="m130.530001,361.019999s17.17,-21.32 31,-17.24c0,0 -14.45,21.89 -33.1,23.68l2.1,-6.44z"/>
  <path id="svg_16" fill="#6c63ff" d="m137.380001,337.709999s19.18,-20.6 28.31,-17.82c0,0 -13.35,22.36 -28.92,22.15l0.61,-4.33z"/>
  <path id="svg_17" fill="#6c63ff" d="m144.150001,316.149999s16.09,-24.15 25.82,-23c0,0 -9.31,21.19 -25.66,25.33l-0.16,-2.33z"/>
  <path id="svg_18" fill="#6c63ff" d="m151.140001,287.239999s14.39,-18.66 22.81,-19.18c0,0 -10.71,24.34 -23.07,25l0.26,-5.82z"/>
  <path id="svg_19" fill="#6c63ff" d="m155.140001,268.029999l12.58,-37.69s3,33.1 -14,44.62l1.42,-6.93z"/>
  <path id="svg_20" fill="#6c63ff" d="m158.530001,227.169999s0.44,-30.79 -1.33,-33.17c0,0 12.47,24.74 2.14,46.71l-0.81,-13.54z"/>
  <path id="svg_21" fill="#6c63ff" d="m128.640001,549.149999s-16.26,-8.62 -24.77,15.73c0,0 14.5,8.28 27,-9.81l-2.23,-5.92z"/>
  <path id="svg_22" fill="#6c63ff" d="m120.000001,523.229999s-19.72,-7.45 -27.35,17.88c0,0 15.47,9.15 29.51,-11.76l-2.16,-6.12z"/>
  <path id="svg_23" fill="#6c63ff" d="m115.640001,501.309999s-14.79,-15.11 -34.36,2.33c0,0 13.94,13.19 34.63,1.79l-0.27,-4.12z"/>
  <path id="svg_24" fill="#6c63ff" d="m112.220001,476.099999s-15,-15.81 -33.71,1.36c0,0 16.66,13.73 34,2.55l-0.29,-3.91z"/>
  <path id="svg_25" fill="#6c63ff" d="m112.550001,455.399999s-11.36,-23.47 -31.83,-11.67c0,0 12.86,20.63 31.24,15.74l0.59,-4.07z"/>
  <path id="svg_26" fill="#6c63ff" d="m115.450001,429.639999s-11.33,-23.9 -32.06,-11.07c0,0 14.66,21.61 31.34,14.93l0.72,-3.86z"/>
  <path id="svg_27" fill="#6c63ff" d="m119.980001,407.339999s-5.64,-26.65 -23.55,-27.87c0,0 5.68,28.13 21.51,32.88l2.04,-5.01z"/>
  <path id="svg_28" fill="#6c63ff" d="m123.370001,385.979999s-3.67,-32.31 -18.46,-32.46c0,0 2.15,24.57 17.11,37.15l1.35,-4.69z"/>
  <path id="svg_29" fill="#6c63ff" d="m132.000001,359.989999s-6.21,-26.66 -20.47,-29c0,0 3.5,26 19.53,35.72l0.94,-6.72z"/>
  <path id="svg_30" fill="#6c63ff" d="m139.060001,337.789999s-2,-28.07 -10.9,-31.62c0,0 -3.61,25.78 8.65,35.38l2.25,-3.76z"/>
  <path id="svg_31" fill="#6c63ff" d="m144.790001,315.799999s-3.15,-28.85 -12.31,-32.32c0,0 -1.5,23.09 11.1,34.3l1.21,-1.98z"/>
  <path id="svg_32" fill="#6c63ff" d="m152.540001,289.459999s-1.64,-23.51 -8.35,-28.61c0,0 -4.58,26.19 5.35,33.56l3,-4.95z"/>
  <path id="svg_33" fill="#6c63ff" d="m154.280001,266.919999l-8.8,-38.74s-6.23,32.64 9.57,45.78l-0.77,-7.04z"/>
  <path id="svg_34" fill="#6c63ff" d="m152.910001,227.919999s-17.63,-25.28 -17.49,-28.22c0,0 3.54,27.48 24.41,39.89l-6.92,-11.67z"/>
  <path id="svg_35" fill="#6c63ff" d="m154.280001,220.029999s-17.46,-36.39 -24.43,-39c0,0 22.09,9.43 25.61,37.8l-1.18,1.2z"/>
  <path id="svg_36" fill="#444053" d="m150.820001,293.249999l-1,-0.25c9.85,-42 11.24,-68.48 3.9,-74.56l0.68,-0.82c7.74,6.44 6.52,32.6 -3.58,75.63z"/>
  <path id="svg_37" fill="#444053" d="m122.540001,391.909999l-1.55,-0.43c1.09,-3.86 2.27,-7.79 3.53,-11.66c11,-33.72 20.14,-65 25.75,-88.94l1.27,-0.75c-5.62,24 -14.51,56.43 -25.49,90.18c-1.25,3.86 -2.43,7.76 -3.51,11.6z"/>
  <path id="svg_38" fill="#444053" d="m169.590001,616.309999c-0.22,-0.21 -22.22,-21.87 -39.12,-60.24a232.37,232.37 0 0 1 -18.61,-70.77c-3,-30.53 1.1,-65.13 10,-96.9l1.28,1.32c-20,71.31 -6.19,130.34 9.23,165.4c16.73,38 38.48,59.45 38.7,59.66l-1.48,1.53z"/>
  <path id="svg_39" fill="#6c63ff" d="m193.810001,502.099999s8,-1.83 13.22,3.55c0,0 -3.37,3 -11.27,-0.33l-1.95,-3.22z"/>
  <path id="svg_40" fill="#6c63ff" d="m192.940001,502.029999s-4.72,6.7 -1.72,13.57c0,0 4.08,-2 4,-10.55l-2.28,-3.02z"/>
  <path id="svg_41" fill="#6c63ff" d="m187.620001,491.919999s2.83,-6.13 16.3,1.29c0,0 -1.45,4.09 -7.18,4.15s-7.41,-2.42 -9.12,-5.44z"/>
  <path id="svg_42" fill="#6c63ff" d="m186.760001,491.549999s-6.76,-0.31 -6.38,15.06c0,0 4.31,0.6 7,-4.46s1.27,-7.68 -0.62,-10.6z"/>
  <path id="svg_43" fill="#6c63ff" d="m182.030001,479.579999s3.07,-10.69 17.23,-4.18c0,0 -2.47,9.79 -15.59,7.64l-1.64,-3.46z"/>
  <path id="svg_44" fill="#6c63ff" d="m176.790001,464.259999s6.39,-11 19.64,-2.08c0,0 -3.75,10.2 -18.31,5.77l-1.33,-3.69z"/>
  <path id="svg_45" fill="#6c63ff" d="m174.280001,449.509999s7.64,-10.25 20.77,-1.4c0,0 -7.28,9 -20.6,3.87l-0.17,-2.47z"/>
  <path id="svg_46" fill="#6c63ff" d="m172.020001,435.169999s7.72,-10.68 20.31,-1.9c0,0 -8.87,9.57 -20.15,4.27l-0.16,-2.37z"/>
  <path id="svg_47" fill="#6c63ff" d="m171.920001,422.309999s8,-13.61 19.73,-5.54c0,0 -8.72,11.83 -19.57,8l-0.16,-2.46z"/>
  <path id="svg_48" fill="#6c63ff" d="m172.960001,407.219999s8.49,-13.55 20,-4.38c0,0 -10.34,11.94 -19.88,6.74l-0.12,-2.36z"/>
  <path id="svg_49" fill="#6c63ff" d="m175.180001,393.639999s10.27,-12.88 20.28,-8.68c0,0 -10.69,13.66 -20.53,11.94l0.25,-3.26z"/>
  <path id="svg_50" fill="#6c63ff" d="m178.200001,380.699999s11.81,-15.71 19.57,-11.26c0,0 -8.65,12.15 -20.3,14.12l0.73,-2.86z"/>
  <path id="svg_51" fill="#6c63ff" d="m182.810001,365.639999s10.38,-12.89 18.76,-10.42c0,0 -8.73,13.23 -20,14.31l1.24,-3.89z"/>
  <path id="svg_52" fill="#6c63ff" d="m186.950001,351.529999s11.59,-12.45 17.11,-10.77c0,0 -8.06,13.51 -17.48,13.39l0.37,-2.62z"/>
  <path id="svg_53" fill="#6c63ff" d="m191.040001,338.499999s9.73,-14.6 15.61,-13.92c0,0 -5.62,12.81 -15.51,15.32l-0.1,-1.4z"/>
  <path id="svg_54" fill="#6c63ff" d="m195.280001,321.019999s8.7,-11.28 13.79,-11.6c0,0 -6.48,14.72 -13.95,15.09l0.16,-3.49z"/>
  <path id="svg_55" fill="#6c63ff" d="m197.690001,309.399999l7.59,-22.76s1.8,20 -8.49,27l0.9,-4.24z"/>
  <path id="svg_56" fill="#6c63ff" d="m199.740001,284.699999s0.26,-18.61 -0.81,-20.05c0,0 7.54,14.95 1.29,28.24l-0.48,-8.19z"/>
  <path id="svg_57" fill="#6c63ff" d="m181.660001,479.359999s-9.82,-5.22 -15,9.5c0,0 8.77,5 16.33,-5.92l-1.33,-3.58z"/>
  <path id="svg_58" fill="#6c63ff" d="m176.450001,463.639999s-11.93,-4.5 -16.54,10.81c0,0 9.35,5.53 17.84,-7.1l-1.3,-3.71z"/>
  <path id="svg_59" fill="#6c63ff" d="m173.800001,450.429999s-8.93,-9.13 -20.77,1.4c0,0 8.43,8 20.94,1.08l-0.17,-2.48z"/>
  <path id="svg_60" fill="#6c63ff" d="m171.740001,435.189999s-9.07,-9.55 -20.38,0.83c0,0 10.07,8.29 20.54,1.54l-0.16,-2.37z"/>
  <path id="svg_61" fill="#6c63ff" d="m171.940001,422.639999s-6.87,-14.19 -19.25,-7.06c0,0 7.78,12.47 18.89,9.52l0.36,-2.46z"/>
  <path id="svg_62" fill="#6c63ff" d="m173.690001,407.089999s-6.85,-14.45 -19.41,-6.69c0,0 8.86,13.07 18.95,9l0.46,-2.31z"/>
  <path id="svg_63" fill="#6c63ff" d="m176.430001,393.639999s-3.41,-16.12 -14.24,-16.85c0,0 3.43,17 13,19.87l1.24,-3.02z"/>
  <path id="svg_64" fill="#6c63ff" d="m178.480001,380.709999s-2.2,-19.53 -11.2,-19.63c0,0 1.3,14.86 10.34,22.47l0.86,-2.84z"/>
  <path id="svg_65" fill="#6c63ff" d="m183.690001,364.999999s-3.75,-16.12 -12.37,-17.54c0,0 2.12,15.71 11.81,21.59l0.56,-4.05z"/>
  <path id="svg_66" fill="#6c63ff" d="m187.960001,351.579999s-1.23,-17 -6.58,-19.12c0,0 -2.19,15.59 5.22,21.39l1.36,-2.27z"/>
  <path id="svg_67" fill="#6c63ff" d="m191.430001,338.279999s-1.9,-17.44 -7.44,-19.54c0,0 -0.91,14 6.71,20.74l0.73,-1.2z"/>
  <path id="svg_68" fill="#6c63ff" d="m196.110001,322.359999s-1,-14.21 -5,-17.3c0,0 -2.77,15.84 3.23,20.29l1.77,-2.99z"/>
  <path id="svg_69" fill="#6c63ff" d="m197.190001,308.729999l-5.32,-23.42s-3.77,19.74 5.78,27.68l-0.46,-4.26z"/>
  <path id="svg_70" fill="#6c63ff" d="m196.340001,285.159999s-10.65,-15.27 -10.57,-17.06c0,0 2.13,16.61 14.75,24.11l-4.18,-7.05z"/>
  <path id="svg_71" fill="#6c63ff" d="m197.140001,280.379999s-10.56,-22 -14.77,-23.55c0,0 13.36,5.7 15.48,22.86l-0.71,0.69z"/>
  <path id="svg_72" fill="#444053" d="m195.070001,324.639999l-0.63,-0.15c6,-25.39 6.8,-41.4 2.36,-45.07l0.41,-0.5c4.71,3.9 3.97,19.72 -2.14,45.72z"/>
  <path id="svg_73" fill="#444053" d="m177.980001,384.299999l-0.94,-0.27c0.66,-2.33 1.38,-4.7 2.14,-7c6.63,-20.39 12.17,-39.3 15.56,-53.77l0.77,-0.46c-3.4,14.5 -8.77,34.12 -15.41,54.53c-0.76,2.31 -1.47,4.64 -2.12,6.97z"/>
  <path id="svg_74" fill="#444053" d="m206.420001,519.959999c-0.13,-0.13 -13.43,-13.22 -23.65,-36.42a140.72,140.72 0 0 1 -11.25,-42.78c-1.83,-18.46 0.67,-39.38 6.06,-58.59l0.77,0.8c-12.09,43.11 -3.74,78.8 5.58,100c10.12,23 23.26,35.93 23.4,36.06l-0.91,0.93z"/>
  <path id="svg_75" fill="#afc0e0" d="m236.500001,569.959999a38.24,38.24 0 0 0 -7.5,2.14c-53.94,21.54 -53.04,162.54 -53.04,162.54l-15.88,0s-5,-60.51 -26.79,-146.84c-19.63,-77.67 60.88,-147.28 77.23,-160.48c1.84,-1.47 2.86,-2.25 2.86,-2.25c81.09,29.8 23.12,144.89 23.12,144.89z"/>
  <path id="svg_76" opacity="0.2" fill="#fff" d="m219.280001,427.519999c-1.87,-0.86 -3.8,-1.68 -5.85,-2.43c0,0 -1,0.78 -2.86,2.25c-16.35,13.2 -96.86,82.81 -77.23,160.48c21.79,86.33 26.74,146.82 26.74,146.82l8.93,0s-4.95,-60.51 -26.79,-146.84c-19.55,-77.31 60.18,-146.66 77.06,-160.28z"/>
  <path id="svg_77" fill="#afc0e0" d="m504.040001,587.819999c-21.84,86.33 -26.76,146.82 -26.76,146.82l-15.91,0s1,-147.36 -56.73,-163.81a31.53,31.53 0 0 0 -3.81,-0.89s-58,-115.09 23.12,-144.87c0,0 0.82,0.61 2.3,1.8c15.03,12.03 97.64,82.38 77.79,160.95z"/>
  <path id="svg_78" opacity="0.1" d="m236.500001,569.959999a38.24,38.24 0 0 0 -7.5,2.14a979.21,979.21 0 0 1 -18.48,-144.76c1.84,-1.47 2.86,-2.25 2.86,-2.25c81.09,29.78 23.12,144.87 23.12,144.87z"/>
  <path id="svg_79" opacity="0.1" d="m426.280001,426.889999a901,901 0 0 1 -21.61,144a31.53,31.53 0 0 0 -3.81,-0.89s-58,-115.09 23.12,-144.87c-0.03,-0.04 0.79,0.57 2.3,1.76z"/>
  <path id="svg_80" fill="#e3e8f4" d="m396.590001,591.779999q-8.4,33.14 -19.69,68s-35.72,37.21 -122,0c0,0 -8.62,-24.3 -18.1,-65.61c-20.87,-90.83 -45.9,-263.92 7.43,-441.71a661.75,661.75 0 0 1 67.18,-152.46s45.56,52.31 79,152.43s54.72,248.07 6.18,439.35z"/>
  <circle id="svg_81" fill="#afc0e0" r="71.63" cy="293.6" cx="318.66"/>
  <path id="svg_82" fill="#6c63ff" d="m369.460001,293.639999a50.8,50.8 0 0 1 -83,39.29a51.33,51.33 0 0 1 -9.52,-10.33a50,50 0 0 1 -3.28,-5.39a50.7,50.7 0 0 1 -5.79,-23.57c0,-0.41 0,-0.81 0,-1.21a50.86,50.86 0 0 1 37,-47.72a52.53,52.53 0 0 1 12.24,-1.86l1.52,0a50.8,50.8 0 0 1 50.83,50.79z"/>
  <path id="svg_83" fill="#afc0e0" d="m390.400001,152.429999c-81.27,38.91 -146.22,0 -146.22,0a661.75,661.75 0 0 1 67.23,-152.43s45.56,52.31 78.99,152.43z"/>
  <path id="svg_84" fill="#afc0e0" d="m396.590001,591.779999q-5.7,22.44 -12.7,45.65q-3.32,11.07 -7,22.32s-35.72,37.21 -122,0c0,0 -2.8,-7.89 -7,-22.32c-3.14,-10.9 -7.05,-25.51 -11.13,-43.29c0,0 32.12,13.71 77.71,13.71a214.11,214.11 0 0 0 82.12,-16.07z"/>
  <path id="svg_85" fill="#e3e8f4" d="m383.890001,637.429999q-3.32,11.07 -7,22.32s-35.72,37.21 -122,0c0,0 -2.8,-7.89 -7,-22.32c-0.01,0 87.93,25.3 136,0z"/>
  <path id="svg_86" opacity="0.2" fill="#fff" d="m304.900001,244.639999l-0.11,0.08l-36.9,47.64c0,0.4 0,0.8 0,1.21a50.7,50.7 0 0 0 5.79,23.57l43.48,-74.36l-12.26,1.86z"/>
  <path id="svg_87" opacity="0.2" fill="#fff" d="m316.680001,287.639999l-30.22,45.25a51.33,51.33 0 0 1 -9.52,-10.33l36,-38.64l3.74,3.72z"/>
  <path id="svg_88" opacity="0.2" fill="#fff" d="m274.200001,659.759999s-8.62,-24.31 -18.1,-65.61c-20.87,-90.84 -45.9,-263.93 7.43,-441.72a664.18,664.18 0 0 1 58.85,-138.09c-6.77,-9.49 -11,-14.33 -11,-14.33a661.68,661.68 0 0 0 -67.2,152.42c-53.33,177.79 -28.3,350.88 -7.43,441.72c9.48,41.3 18.1,65.61 18.1,65.61c34.09,14.69 60.28,17.77 79.5,16.13c-16.42,-1.25 -36.36,-5.88 -60.15,-16.13z"/>
  <rect id="svg_131" opacity="0.1" transform="rotate(-42.04999923706055 438.589996337891,1192.0000000000002) " ry="12.62" rx="12.62" height="69.8" width="61.42" y="1157.099983" x="407.880009"/>
 </g>
</svg>